# xmcd
#
# Track frame offsets: 
#        150
#        23567
#        41559
#        64803
#        87034
#        112708
#        142426
#        156684
#        173636
#        195382
#        216068
#        235472
#
# Disc length: 3658 seconds
#
# Revision: 0
# Processed by: cddbd v1.5.2PL0 Copyright (c) Steve Scherf et al.
# Submitted via: ExactAudioCopy v1.3
#
DISCID=a20e480c
DTITLE=Smoky Greenwell - Blues and the Power of Peace
DYEAR=2019
DGENRE=Blues
TTITLE0=Common Ground (Radio Edit)
TTITLE1=Get out and Vote
TTITLE2=Low Blow for the Blues
TTITLE3=The Way out Is In
TTITLE4=Slow Moving Coup
TTITLE5=The Power of Peace
TTITLE6=High Sailing
TTITLE7=I'm a Lover (Not a Fighter)
TTITLE8=Flat Tire Blues
TTITLE9=I Need Money (Keep Your Alibis)
TTITLE10=Hot Cha
TTITLE11=Common Ground (Extended Version)
EXTD=
EXTT0=
EXTT1=
EXTT2=
EXTT3=
EXTT4=
EXTT5=
EXTT6=
EXTT7=
EXTT8=
EXTT9=
EXTT10=
EXTT11=
PLAYORDER=
